PathFileType	4	(X/Y/Z)	C:\Users\Basilio\Documents\Thesis Gigler\squatting_fais\c3dfiles\075\SLS_back_pre1\markers_experimental.trc
DataRate	CameraRate	NumFrames	NumMarkers	Units	OrigDataRate	OrigDataStartFrame	OrigNumFrames
200.000000	200.000000	4	61	mm	200.000000	678	1357
Frame#	Time	FHD			LBHD			C7			T10			CLAV			LSHO			LUUPA			LMUPA			LDUPA			LLEP			LMEP			LRAD			LUL			LRFIN			RSHO			RUPA1			RMUPA			RDUPA			RLEP			RMEP			RRAD			RUL			RUFIN			LASI			RASI			USACR			LSACR			RSACR			LTHI1			LTHI2			LTHI3			LTHI4			LLFC			LMFC			LTIB1			LTIB2			LTIB3			LTIB4			LLMAL			LMMAL			LHEE			LMT1			LMT2			LMT5			RTHI			RTHI2			RTHI3			RTHI4			RLFC			RMFC			RTIB1			RTIB2			RTIB3			RTIB4			RLMAL			RMMAL			RHEE			RMT1			RMT2			RMT5			RBHD			
		X1	Y1	Z1	X2	Y2	Z2	X3	Y3	Z3	X4	Y4	Z4	X5	Y5	Z5	X6	Y6	Z6	X7	Y7	Z7	X8	Y8	Z8	X9	Y9	Z9	X10	Y10	Z10	X11	Y11	Z11	X12	Y12	Z12	X13	Y13	Z13	X14	Y14	Z14	X15	Y15	Z15	X16	Y16	Z16	X17	Y17	Z17	X18	Y18	Z18	X19	Y19	Z19	X20	Y20	Z20	X21	Y21	Z21	X22	Y22	Z22	X23	Y23	Z23	X24	Y24	Z24	X25	Y25	Z25	X26	Y26	Z26	X27	Y27	Z27	X28	Y28	Z28	X29	Y29	Z29	X30	Y30	Z30	X31	Y31	Z31	X32	Y32	Z32	X33	Y33	Z33	X34	Y34	Z34	X35	Y35	Z35	X36	Y36	Z36	X37	Y37	Z37	X38	Y38	Z38	X39	Y39	Z39	X40	Y40	Z40	X41	Y41	Z41	X42	Y42	Z42	X43	Y43	Z43	X44	Y44	Z44	X45	Y45	Z45	X46	Y46	Z46	X47	Y47	Z47	X48	Y48	Z48	X49	Y49	Z49	X50	Y50	Z50	X51	Y51	Z51	X52	Y52	Z52	X53	Y53	Z53	X54	Y54	Z54	X55	Y55	Z55	X56	Y56	Z56	X57	Y57	Z57	X58	Y58	Z58	X59	Y59	Z59	X60	Y60	Z60	X61	Y61	Z61	

679	3.39	-105.9403991699219	1406.265869140625	-732.2483520507814	-262.4976806640626	1315.387084960938	-815.760437011719	-321.4488525390626	1221.769653320313	-764.6683959960939	-473.5411682128907	943.5189208984377	-777.2507324218752	-206.9886322021485	1117.144165039063	-758.3973388671876	-215.3561706542969	1182.326538085938	-888.9024047851565	-81.38272094726564	1088.661499023438	-985.6502685546877	-51.46746826171876	1106.636352539063	-951.2708740234377	-13.92003345489502	1072.604125976563	-984.291442871094	68.4360809326172	1052.101928710938	-969.2703857421877	36.3091163635254	980.6281738281252	-927.2165527343752	nan	nan	nan	286.6116027832032	1045.667724609375	-828.476745605469	283.9708557128907	1070.287719726563	-722.3397827148439	-238.4057006835938	1163.421752929688	-622.4831542968751	-131.5215301513672	1067.251098632813	-497.3636779785157	-91.46838378906251	1082.02734375	-521.5303955078126	-66.67135620117189	1045.304931640625	-479.8903808593751	3.806610584259034	1029.857421875	-475.6520385742189	2.217448949813843	956.9205322265627	-506.1639404296876	212.5996704101563	1052.773559570313	-662.1078491210939	238.0209503173829	1043.918701171875	-589.4381713867189	291.3166809082032	1084.832153320313	-684.4814453125001	-394.7896118164064	742.8897705078126	-919.0598144531252	-386.5565490722657	733.1228637695314	-667.4404296875001	-519.0479125976564	845.9969482421877	-786.5156250000002	-536.6346435546876	820.797790527344	-815.4380493164065	-537.8752441406251	818.4698486328127	-757.5258178710939	-402.2588500976564	559.6573486328126	-1027.665405273438	-349.2319641113282	496.0868530273439	-1042.045288085938	-310.4251708984376	503.7641601562501	-1011.212280273438	-360.7155151367188	437.4303283691407	-1056.4248046875	-356.0055236816407	349.3314819335938	-1065.621337890625	-347.7811889648438	294.1944274902344	-942.3511352539065	-427.4415893554689	238.8249816894532	-1042.898681640625	-484.0838012695314	289.1998291015626	-1088.376220703125	-476.8638610839845	247.8551788330079	-1073.77490234375	-553.9822998046876	223.6877441406251	-1046.592407226563	-709.8767700195314	262.6727294921876	-1060.977661132813	-687.2537841796876	228.2762756347657	-983.6699829101565	-750.2614746093751	304.9197387695313	-1011.116149902344	-736.7512207031251	95.31786346435548	-1006.104125976563	-736.2441406250001	95.90651702880861	-1056.206176757813	-767.6732177734376	136.4170684814453	-1099.383911132813	-397.3903808593751	594.7604370117189	-607.4851074218751	-331.6280212402344	589.2677001953126	-610.8195800781251	-315.3218688964844	618.1058349609376	-620.3355712890626	-287.8673706054688	518.3673095703126	-618.0386352539064	-198.3525543212891	413.9605712890626	-659.6235961914064	-170.3975067138672	435.0727844238282	-779.4461059570315	-190.7029876708985	289.7090148925782	-755.2294921875001	-269.0167846679688	231.6300964355469	-706.7263793945314	-240.2583007812501	217.7843017578126	-744.1499023437501	-273.6166076660157	195.1857910156251	-786.135437011719	-389.3149719238282	109.7963943481446	-760.9916992187501	-353.8307495117188	141.9168853759766	-839.636657714844	-448.209197998047	99.32609558105472	-823.7324218750002	-247.6961059570313	56.71764755249025	-834.306335449219	-246.5198364257813	55.82706832885744	-791.534118652344	-284.0584411621094	33.21368789672852	-740.4102783203126	-229.4753570556641	1338.984619140625	-657.6925048828126	
680	3.395	-105.8578796386719	1406.749267578125	-732.4602050781251	-262.3628540039063	1316.188232421875	-815.9144287109377	-321.5634765625001	1222.348510742188	-764.9624633789064	-473.5528259277345	944.177917480469	-777.261169433594	-206.9937896728516	1117.89990234375	-758.4565429687501	-215.3705596923829	1182.847900390625	-889.0593261718752	-81.36705780029298	1089.102783203125	-985.736755371094	-51.45990371704103	1107.061157226563	-951.3548583984377	-14.0994987487793	1072.944702148438	-984.4299926757815	68.15572357177736	1052.335693359375	-969.2944335937502	36.08530807495118	980.9017333984377	-927.2296142578127	nan	nan	nan	286.4915771484376	1045.71728515625	-828.5296630859377	283.9438476562501	1070.24658203125	-722.4799804687501	-238.5069732666016	1164.216552734375	-622.6934204101564	-131.6897125244141	1067.786499023438	-497.6963500976564	-91.57339477539064	1082.48095703125	-521.6066894531251	-66.85952758789064	1045.719970703125	-480.0425415039064	3.657134056091309	1030.207153320313	-475.7749633789064	1.974828720092774	957.3586425781252	-506.1899414062501	212.5315551757813	1052.935302734375	-662.3192749023439	237.8547515869141	1043.971069335938	-589.5439453125001	291.2811889648438	1084.809692382813	-684.6141967773439	-394.9431457519532	743.2552490234376	-918.9406738281252	-386.4703979492189	733.6500854492189	-667.4132080078126	-519.0233154296876	846.5776367187502	-786.4776611328127	-536.5677490234376	821.3540649414065	-815.3197021484377	-537.7886962890626	819.0971679687502	-757.4090576171876	-402.4291076660157	560.1812133789064	-1027.504516601563	-349.3574523925782	496.436004638672	-1041.879638671875	-310.3240966796876	504.1419982910157	-1011.171997070313	-360.8459777832032	437.885711669922	-1056.263305664063	-356.2252502441407	349.8197631835938	-1065.462524414063	-347.8447875976563	294.6201477050782	-942.121765136719	-427.5388793945314	238.9796600341797	-1042.290893554688	-484.2395019531251	289.3473510742188	-1088.048461914063	-476.9592590332032	248.1867675781251	-1073.437255859375	-554.1327514648439	223.9545288085938	-1046.23583984375	-711.3319702148439	263.5653076171876	-1060.972900390625	-687.2836914062501	228.4583740234376	-983.0296630859377	-750.3406372070314	304.9343261718751	-1010.519897460938	-736.7005615234376	95.52748870849611	-1005.423767089844	-736.3102416992189	95.9994583129883	-1055.682739257813	-767.7546386718751	136.4027709960938	-1098.551513671875	-397.3673706054689	595.2845458984376	-607.3165893554689	-331.6649780273438	589.6316528320314	-610.8179931640626	-315.2406921386719	618.5200195312501	-620.2705078125001	-287.9643859863282	518.7492675781251	-617.8809814453126	-198.5662536621094	414.159881591797	-659.5529785156251	-170.3897705078125	435.2109375000001	-779.3831176757815	-190.8691101074219	289.8262023925782	-755.1807861328126	-269.1932067871094	231.7142028808594	-706.6585693359376	-240.4268493652344	217.8907165527344	-744.0569458007814	-273.7029724121094	195.2842254638672	-786.0369873046877	-389.3059997558595	109.8314743041992	-760.9026489257814	-353.9043273925782	141.9999694824219	-839.5985107421877	-448.1856994628907	99.29451751708987	-823.6536865234377	-247.618637084961	56.66918945312501	-834.261657714844	-246.5193023681641	55.82081222534181	-791.5330810546877	-284.0680541992188	33.20977401733399	-740.4342651367189	-228.5569458007813	1339.133911132813	-658.7933349609376	
681	3.4	-105.8007431030274	1407.298095703125	-732.6401977539064	-262.4464111328126	1316.4755859375	-816.2044067382815	-321.5276489257813	1223.185424804688	-765.0643920898439	-473.470916748047	944.8470458984377	-777.2786865234377	-207.0647430419922	1118.537475585938	-758.5537719726564	-215.3382873535157	1183.422607421875	-889.1752929687502	-81.12017059326173	1089.46142578125	-985.904479980469	-51.72097015380861	1107.5380859375	-951.3833618164065	-13.93031787872315	1073.261840820313	-984.4025878906252	65.97434234619142	1052.027099609375	-968.2996215820315	35.78608703613282	981.3896484375002	-927.5009765625002	nan	nan	nan	286.4334411621094	1045.715942382813	-828.7142333984377	283.8519592285157	1070.342407226563	-722.5369262695314	-238.4707794189454	1164.930297851563	-622.6986694335939	-131.7518310546875	1068.454833984375	-497.7349853515626	-91.65506744384767	1083.043579101563	-521.7374877929689	-67.01893615722658	1046.2421875	-480.1531677246095	3.481144189834596	1030.636596679688	-475.9248657226564	1.651585578918457	957.7792968750002	-506.2720947265626	212.3751983642579	1053.17138671875	-662.4797363281251	237.7408599853516	1044.06201171875	-589.6646728515626	291.2312011718751	1084.9697265625	-684.6668090820314	-394.8948059082032	743.7695922851564	-918.6730957031252	-386.3827209472657	734.3226318359376	-667.3162231445314	-519.0415039062501	847.333190917969	-786.424499511719	-536.5388793945314	822.0154418945315	-815.1510009765627	-537.6463623046876	819.8511962890627	-757.3254394531251	-402.6976318359376	560.7429199218751	-1027.524169921875	-348.5155334472657	496.5346984863282	-1041.567626953125	-310.3742980957032	504.5574035644532	-1011.111999511719	-361.6991882324219	438.4107666015626	-1056.15087890625	-356.4399719238282	350.3032531738282	-1065.272583007813	-347.8925476074219	295.2154541015626	-941.881042480469	-427.4981689453126	239.3993225097657	-1041.96142578125	-484.4782104492189	289.6853027343751	-1087.6533203125	-477.1318359375001	248.4701080322266	-1073.050415039063	-554.1868896484376	224.3150939941407	-1045.6953125	-711.4935302734376	263.7200317382813	-1060.42724609375	-687.3356323242189	228.5661010742188	-982.4724121093752	-750.4744873046876	305.0220947265626	-1010.017456054688	-736.6146240234376	95.6531448364258	-1004.71728515625	-736.2556762695314	95.74901580810548	-1054.828735351563	-767.9938354492189	136.4180755615235	-1097.8134765625	-397.3786010742189	595.7567749023439	-607.2326049804689	-331.6729736328126	590.0041503906251	-610.7520141601564	-315.1814575195313	618.9202880859376	-620.1406250000001	-288.0047912597657	519.2064819335939	-617.8115844726564	-198.7345428466797	414.3248291015626	-659.4461669921876	-170.7614440917969	435.3839111328126	-779.3640136718752	-191.0361480712891	289.9872436523438	-755.1182861328126	-269.2993469238282	231.8189849853516	-706.5680541992189	-240.3724212646485	217.7585601806641	-743.8706054687501	-273.7094421386719	195.3516540527344	-785.937927246094	-389.2850036621095	109.8076629638672	-760.8383789062501	-353.8282470703126	141.9575653076172	-839.5507812500002	-448.1804199218751	99.3337097167969	-823.5874023437502	-247.7316589355469	56.72173309326173	-834.3396606445315	-246.5325775146485	55.81027603149415	-791.4996337890627	-284.0812988281251	33.18321990966798	-740.4291381835939	-229.4653320312501	1340.412475585938	-657.9948120117189	
682	3.405	-105.7165679931641	1407.9482421875	-732.7984619140626	-262.3656921386719	1316.984252929688	-816.336364746094	-321.5030212402344	1223.961791992188	-765.0736694335939	-473.359588623047	945.5462646484377	-777.3071899414065	-207.1555328369141	1119.18408203125	-758.6651000976564	-215.1290588378907	1184.1025390625	-889.102233886719	-82.19902801513673	1090.182861328125	-986.2573242187502	-51.73736953735353	1107.9345703125	-951.488220214844	-14.25308322906494	1073.842895507813	-984.7515869140627	66.72715759277345	1053.08349609375	-969.4830322265627	35.68559265136719	981.7545166015627	-927.5566406250002	nan	nan	nan	286.2232971191407	1045.872680664063	-828.7705078125002	283.6885986328126	1070.4248046875	-722.6661987304689	-238.5745086669922	1165.662109375	-622.8702392578126	-131.8057861328125	1069.047485351563	-497.8847656250001	-91.77669525146486	1083.602294921875	-521.8520507812501	-67.14303588867189	1046.864501953125	-480.2961730957032	3.340601921081544	1031.189819335938	-476.0240478515626	1.371569156646729	958.3098144531252	-506.3360290527345	212.2343444824219	1053.442016601563	-662.5339355468751	237.5624542236329	1044.23828125	-589.7919921875001	291.1115722656251	1085.002807617188	-684.8259277343751	-394.9470214843751	744.2874755859376	-918.5344238281252	-386.2931518554689	735.0217285156251	-667.2243652343751	-518.5067138671876	847.7063598632815	-786.4993286132815	-536.4655151367189	822.6409912109377	-815.0748291015627	-537.7847900390626	820.5823974609377	-757.1043090820314	-402.7822875976564	561.2750854492189	-1027.346313476563	-348.7836303710938	497.169158935547	-1041.514038085938	-310.4654846191407	504.9337768554689	-1010.946960449219	-361.3020324707032	438.8508911132814	-1055.769165039063	-356.6190490722657	350.6508789062501	-1064.991821289063	-348.0015563964844	295.8013000488282	-941.668884277344	-427.4225158691407	239.7695312500001	-1041.568969726563	-484.6224670410157	290.0021057128907	-1087.25146484375	-477.2460937500001	248.8831176757813	-1072.656372070313	-554.3591918945314	224.5608673095704	-1045.128784179688	-711.6140136718751	263.7738342285157	-1059.973022460938	-687.3280639648439	228.8158111572266	-981.916442871094	-750.5981445312501	305.1507568359376	-1009.451843261719	-736.5441284179689	95.67732238769533	-1004.041198730469	-736.3125610351564	96.03627014160159	-1054.026611328125	-768.030456542969	136.4332733154297	-1097.123657226563	-397.2911071777345	596.3684692382814	-607.0590209960939	-331.6404418945313	590.4709472656251	-610.6610717773439	-315.1440734863282	619.4103393554689	-620.0407104492189	-288.0368652343751	519.6528930664064	-617.7304687500001	-198.9473114013672	414.5618591308595	-659.4499511718751	-170.7775115966797	435.545867919922	-779.2673950195315	-191.3247222900391	290.2371520996094	-755.1317138671876	-269.3865966796876	231.9081726074219	-706.5000000000001	-240.5818328857422	217.9281768798829	-743.8340454101564	-273.8336791992188	195.5456848144532	-785.8613891601565	-389.3013610839845	109.8216171264649	-760.7540283203126	-353.8105773925782	141.9904937744141	-839.4622192382815	-448.1841125488282	99.34516906738284	-823.5162353515627	-247.6858367919922	56.74819564819337	-834.3059082031252	-246.5283813476563	55.80373001098634	-791.4951782226565	-284.0660705566407	33.15024948120118	-740.3869018554689	-229.5178985595704	1340.575561523438	-658.4869384765626	
